<?xml version="1.0" standalone="no"?>
<!DOCTYPE svg PUBLIC "-//W3C//DTD SVG 20010904//EN"
 "http://www.w3.org/TR/2001/REC-SVG-20010904/DTD/svg10.dtd">
<svg version="1.0" xmlns="http://www.w3.org/2000/svg"
 width="1024.000000pt" height="1024.000000pt" viewBox="0 0 1024.000000 1024.000000"
 preserveAspectRatio="xMidYMid meet">

<g transform="translate(0.000000,1024.000000) scale(0.100000,-0.100000)"
fill="#000000" stroke="none">
<path d="M4705 8615 c-773 -92 -1451 -422 -2005 -975 -531 -529 -844 -1174
-946 -1946 -22 -165 -25 -657 -6 -814 97 -765 420 -1426 966 -1974 271 -272
551 -473 901 -646 204 -101 360 -161 567 -219 571 -161 1152 -171 1715 -31
484 120 911 333 1313 654 108 86 422 404 516 521 323 406 559 912 658 1410 53
272 61 350 60 670 0 312 -7 401 -55 660 -78 423 -259 861 -511 1238 -157 234
-428 530 -654 713 -486 395 -1051 640 -1684 730 -162 23 -671 28 -835 9z m537
-305 c258 -14 440 -42 678 -107 732 -198 1398 -714 1802 -1395 168 -285 294
-616 362 -958 37 -183 46 -273 53 -490 20 -672 -190 -1344 -585 -1872 -482
-643 -1160 -1068 -1917 -1204 -236 -42 -605 -57 -836 -33 -416 42 -815 164
-1168 356 -111 60 -338 213 -438 294 -249 203 -505 491 -692 779 -76 117 -228
421 -276 553 -380 1042 -160 2213 572 3047 372 423 826 722 1362 894 261 85
534 130 856 144 22 1 124 -3 227 -8z"/>
<path d="M3882 7724 c-29 -14 -64 -41 -77 -58 -29 -38 -55 -107 -55 -146 0
-24 -10 -34 -72 -70 -133 -78 -261 -182 -406 -327 l-142 -143 -193 -2 -192 -3
-3 -252 -2 -253 472 -2 473 -3 0 -1267 0 -1267 243 -3 242 -3 0 1273 0 1272
275 0 275 0 0 -1270 0 -1270 245 0 245 0 0 530 0 530 264 0 264 0 204 -332
c113 -183 258 -422 324 -530 l119 -197 258 -1 c242 0 257 -1 248 -17 -17 -33
-199 -219 -283 -291 l-84 -71 -60 30 c-49 26 -68 30 -114 27 -99 -7 -176 -61
-219 -154 -19 -39 -22 -61 -19 -115 6 -117 84 -207 200 -231 104 -22 225 40
269 137 12 26 19 64 19 111 l0 71 77 64 c100 83 248 233 330 334 169 210 344
518 428 755 112 315 165 693 136 974 l-11 109 45 39 c83 73 112 170 81 265
-77 232 -404 229 -472 -5 -38 -129 38 -269 166 -306 l45 -13 8 -79 c11 -106 1
-365 -19 -494 -36 -238 -118 -490 -231 -713 -51 -100 -221 -369 -242 -381 -5
-3 -107 157 -227 357 -120 199 -269 445 -331 546 -63 101 -112 185 -111 186 2
1 23 7 48 14 162 47 359 202 463 366 58 92 112 228 133 340 20 107 15 306 -11
424 -73 331 -321 604 -645 710 -176 57 -100 54 -1555 58 -737 2 -1346 4 -1354
6 -9 1 18 33 65 79 118 114 210 185 333 257 l54 32 26 -25 c60 -57 185 -75
260 -37 52 27 108 92 122 143 14 52 7 144 -14 184 -62 119 -200 166 -315 108z
m2209 -1285 c178 -60 294 -182 334 -351 28 -120 12 -261 -42 -360 -35 -64
-125 -149 -199 -186 -124 -63 -141 -65 -576 -69 l-398 -5 0 502 0 501 403 -3
c400 -4 402 -4 478 -29z"/>
<path d="M2680 6114 c-20 -52 -70 -263 -85 -360 -10 -66 -21 -102 -31 -109 -9
-5 -35 -22 -59 -36 -58 -36 -95 -111 -95 -191 0 -69 16 -111 60 -162 128 -145
362 -95 415 88 19 64 15 117 -12 174 -20 43 -74 96 -113 112 -26 11 -30 18
-30 49 0 69 64 335 107 448 4 10 -12 13 -71 13 -73 0 -77 -1 -86 -26z"/>
<path d="M3083 3853 c24 -32 86 -102 137 -156 380 -401 929 -678 1494 -754
l58 -8 19 -49 c37 -100 119 -155 227 -156 102 0 178 45 225 135 29 56 29 155
-1 211 -27 53 -100 117 -150 132 -111 33 -235 -15 -290 -114 -7 -13 -24 -12
-138 5 -341 53 -641 169 -944 368 -164 107 -340 258 -440 377 l-55 66 -93 0
-93 0 44 -57z"/>
</g>
</svg>
